<?xml version="1.0" encoding="UTF-8" standalone="no"?>
<!DOCTYPE svg PUBLIC "-//W3C//DTD SVG 1.1//EN" "http://www.w3.org/Graphics/SVG/1.1/DTD/svg11.dtd">
<svg width="100%" height="100%" viewBox="0 0 500 469" version="1.1" xmlns="http://www.w3.org/2000/svg" xmlns:xlink="http://www.w3.org/1999/xlink" xml:space="preserve" xmlns:serif="http://www.serif.com/" style="fill-rule:evenodd;clip-rule:evenodd;stroke-linejoin:round;stroke-miterlimit:2;">
    <g transform="matrix(1.66667,0,0,1.5625,-166.667,-156.3)">
        <g id="svg">
            <path d="M320,219.709C323.266,219.242 326.605,219 330,219C368.66,219 400,250.34 400,289L400,400L340,400L340,289L340.003,289C340.003,283.475 335.525,278.997 330,278.997C324.558,278.997 320.131,283.342 320,288.753L320,400L260,400L260,100L320,100L320,219.709ZM160,100L160,400L100,400L100,100L160,100ZM240,200L240,400L180,400L180,200L240,200ZM210,115C226.557,115 240,128.443 240,145C240,161.557 226.557,175 210,175C193.443,175 180,161.557 180,145C180,128.443 193.443,115 210,115Z" style="fill-opacity:0;"/>
            <clipPath id="_clip1">
                <path d="M320,219.709C323.266,219.242 326.605,219 330,219C368.66,219 400,250.34 400,289L400,400L340,400L340,289L340.003,289C340.003,283.475 335.525,278.997 330,278.997C324.558,278.997 320.131,283.342 320,288.753L320,400L260,400L260,100L320,100L320,219.709ZM160,100L160,400L100,400L100,100L160,100ZM240,200L240,400L180,400L180,200L240,200ZM210,115C226.557,115 240,128.443 240,145C240,161.557 226.557,175 210,175C193.443,175 180,161.557 180,145C180,128.443 193.443,115 210,115Z"/>
            </clipPath>
            <g clip-path="url(#_clip1)">
                <g transform="matrix(1.58182,0,0,3.11014,-90.0461,-141.822)">
                    <rect x="100" y="71" width="235" height="109" style="fill:rgb(1,1,1);"/>
                </g>
                <g transform="matrix(0.347074,0,0,0.849548,133.73,35.3964)">
                    <rect x="100" y="71" width="235" height="109" style="fill:rgb(66,227,253);"/>
                </g>
            </g>
        </g>
    </g>
</svg>
