<svg width="100%" height="100%" viewBox="0 0 534 534" version="1.1" xmlns="http://www.w3.org/2000/svg" xmlns:xlink="http://www.w3.org/1999/xlink" xml:space="preserve" xmlns:serif="http://www.serif.com/" style="fill-rule:evenodd;clip-rule:evenodd;stroke-linejoin:round;stroke-miterlimit:2;"><path d="M263.523,0.004c-21.755,0.103 -42.52,1.953 -60.802,5.189c-53.845,9.512 -63.614,29.421 -63.614,66.144l-0,48.492l127.234,-0l0,16.164l-174.989,-0c-36.975,-0 -69.354,22.223 -79.485,64.516c-11.686,48.46 -12.201,78.706 0,129.311c9.043,37.671 30.643,64.505 67.624,64.505l43.751,0l-0,-58.132c-0,-41.999 36.331,-79.041 79.484,-79.041l127.09,-0c35.378,-0 63.615,-29.133 63.615,-64.656l-0,-121.154c-0,-34.486 -29.092,-60.389 -63.615,-66.144c-21.867,-3.638 -44.544,-5.292 -66.293,-5.194Zm-68.809,39c13.139,0 23.877,10.909 23.877,24.326c0,13.361 -10.732,24.166 -23.877,24.166c-13.191,-0 -23.872,-10.805 -23.872,-24.166c-0.005,-13.417 10.681,-24.326 23.872,-24.326Z" style="fill:url(#_Linear1);fill-rule:nonzero;"/><path d="M409.296,135.987l-0,56.509c-0,43.798 -37.14,80.665 -79.485,80.665l-127.09,0c-34.811,0 -63.614,29.798 -63.614,64.661l-0,121.164c-0,34.476 29.978,54.762 63.614,64.65c40.273,11.836 78.898,13.979 127.09,0c32.029,-9.28 63.615,-27.943 63.615,-64.65l-0,-48.497l-127.085,0l0,-16.169l190.71,0c36.975,0 50.763,-25.789 63.624,-64.506c13.284,-39.855 12.712,-78.186 0,-129.31c-9.14,-36.816 -26.592,-64.517 -63.624,-64.517l-47.755,0Zm-71.483,306.83c13.196,-0 23.878,10.805 23.878,24.176c-0,13.407 -10.687,24.316 -23.878,24.316c-13.139,-0 -23.872,-10.909 -23.872,-24.316c0,-13.371 10.733,-24.176 23.872,-24.176Z" style="fill:url(#_Linear2);fill-rule:nonzero;"/><defs><linearGradient id="_Linear1" x1="0" y1="0" x2="1" y2="0" gradientUnits="userSpaceOnUse" gradientTransform="matrix(291.274,252.829,-252.829,291.274,-9.84638,15.1664)"><stop offset="0" style="stop-color:#5a9fd4;stop-opacity:1"/><stop offset="1" style="stop-color:#306998;stop-opacity:1"/></linearGradient><linearGradient id="_Linear2" x1="0" y1="0" x2="1" y2="0" gradientUnits="userSpaceOnUse" gradientTransform="matrix(-104.01,-148.46,148.46,-104.01,394.028,420.997)"><stop offset="0" style="stop-color:#ffd43b;stop-opacity:1"/><stop offset="1" style="stop-color:#ffe873;stop-opacity:1"/></linearGradient></defs></svg>